<svg width="133" height="40" viewBox="0 0 133 40" fill="none" xmlns="http://www.w3.org/2000/svg">
<path d="M2.76355 34.2988V12.0556H6.43704V34.2988H2.76355ZM4.92046 34.2988V31.1983H18.873V34.2988H4.92046ZM4.92046 24.4242V21.5595H17.2553V24.4242H4.92046ZM4.92046 15.1225V12.0556H18.8393V15.1225H4.92046ZM22.7026 34.2988V10.5391H26.3087V34.2988H22.7026ZM39.0762 34.737C37.6832 34.737 36.4474 34.5347 35.369 34.1303C34.2905 33.7034 33.3806 33.108 32.6391 32.3441C31.8977 31.5577 31.336 30.6253 30.954 29.5469C30.5721 28.4459 30.3811 27.2102 30.3811 25.8397C30.3811 24.4691 30.5721 23.2109 30.954 22.0651C31.336 20.8967 31.8752 19.8857 32.5717 19.0319C33.2907 18.1781 34.167 17.5153 35.2005 17.0435C36.2565 16.5717 37.4473 16.3358 38.7729 16.3358C40.0086 16.3358 41.1095 16.538 42.0756 16.9424C43.0642 17.3468 43.8955 17.9647 44.5696 18.796C45.2436 19.6048 45.7491 20.6271 46.0862 21.8629C46.4232 23.0761 46.5467 24.5028 46.4569 26.143L32.7402 26.2441V23.9524L44.3 23.8513L43.0193 25.2667C43.1541 23.9187 43.0418 22.8065 42.6823 21.9303C42.3228 21.054 41.806 20.4025 41.132 19.9756C40.458 19.5487 39.6828 19.3352 38.8066 19.3352C37.818 19.3352 36.953 19.5936 36.2115 20.1104C35.4926 20.6047 34.9309 21.3349 34.5264 22.301C34.122 23.2671 33.9198 24.4242 33.9198 25.7723C33.9198 27.7944 34.3692 29.3222 35.2679 30.3557C36.1666 31.3668 37.4473 31.8723 39.1099 31.8723C39.8064 31.8723 40.4018 31.7937 40.8961 31.6364C41.3904 31.4566 41.806 31.232 42.143 30.9623C42.4801 30.6703 42.7497 30.3332 42.9519 29.9513C43.1766 29.5469 43.3563 29.1312 43.4911 28.7043L46.6928 29.4458C46.4906 30.2771 46.176 31.0185 45.7491 31.6701C45.3447 32.2992 44.828 32.8497 44.1989 33.3215C43.5698 33.7708 42.8283 34.1191 41.9745 34.3662C41.1432 34.6134 40.1771 34.737 39.0762 34.737ZM54.461 34.2988L48.3273 16.8076H52.4052L56.7865 31.2994H57.292L61.7069 16.8076H65.65L59.5163 34.2988H54.461ZM72.3628 34.737C71.3966 34.737 70.5316 34.5572 69.7677 34.1977C69.0038 33.8158 68.3972 33.2541 67.9478 32.5126C67.5209 31.7712 67.3075 30.85 67.3075 29.7491C67.3075 28.8728 67.4648 28.1202 67.7793 27.4911C68.1163 26.8395 68.6106 26.3003 69.2622 25.8734C69.9362 25.424 70.79 25.0645 71.8235 24.7949C72.8571 24.5028 74.0816 24.2557 75.497 24.0535C76.2834 23.9411 76.9237 23.8288 77.418 23.7165C77.9348 23.6041 78.3055 23.4244 78.5302 23.1772C78.7773 22.9301 78.9009 22.5594 78.9009 22.0651C78.9009 21.3012 78.6313 20.6496 78.0921 20.1104C77.5753 19.5487 76.7328 19.2678 75.5644 19.2678C74.9129 19.2678 74.2613 19.3802 73.6097 19.6048C72.9806 19.8295 72.4302 20.2002 71.9583 20.717C71.509 21.2113 71.2057 21.8853 71.0484 22.7391L67.7456 21.6944C67.9478 20.8406 68.2736 20.0879 68.723 19.4363C69.1723 18.7623 69.734 18.2006 70.4081 17.7512C71.0821 17.2794 71.8572 16.9312 72.7335 16.7065C73.6322 16.4593 74.6095 16.3358 75.6655 16.3358C77.2158 16.3358 78.4965 16.5941 79.5075 17.1109C80.5186 17.6277 81.2713 18.4253 81.7656 19.5037C82.2823 20.5597 82.5407 21.919 82.5407 23.5817V27.154C82.5407 27.8955 82.5519 28.6819 82.5744 29.5132C82.6193 30.322 82.6643 31.1421 82.7092 31.9734C82.7766 32.7822 82.8553 33.5574 82.9451 34.2988H79.6086C79.5412 33.6248 79.4738 32.9283 79.4064 32.2093C79.3615 31.4903 79.3166 30.7601 79.2716 30.0187H78.7661C78.4516 30.8725 78.0022 31.6589 77.418 32.3778C76.8563 33.0968 76.1486 33.6697 75.2948 34.0966C74.4635 34.5235 73.4862 34.737 72.3628 34.737ZM73.6434 31.906C74.1153 31.906 74.5871 31.8274 75.0589 31.6701C75.5532 31.5128 76.0363 31.2769 76.5081 30.9623C77.0024 30.6253 77.4517 30.1984 77.8562 29.6817C78.283 29.1649 78.6538 28.5471 78.9683 27.8281L78.9346 24.6601L79.8109 24.8286C79.4289 25.1656 78.9458 25.424 78.3617 25.6038C77.8 25.7835 77.1821 25.9295 76.5081 26.0419C75.834 26.1318 75.16 26.2441 74.486 26.3789C73.8344 26.4912 73.2278 26.6598 72.6661 26.8844C72.1268 27.0866 71.6887 27.3787 71.3517 27.7607C71.0372 28.1426 70.8799 28.6706 70.8799 29.3447C70.8799 30.176 71.1383 30.8163 71.655 31.2657C72.1718 31.6926 72.8346 31.906 73.6434 31.906ZM87.4404 34.2988V25.1656V16.7739H90.6083L90.4398 22.8402H91.0128C91.215 21.4697 91.5295 20.3013 91.9564 19.3352C92.3833 18.3691 92.9675 17.6389 93.7089 17.1446C94.4503 16.6279 95.3715 16.3695 96.4724 16.3695C96.6971 16.3695 96.9443 16.3807 97.2139 16.4032C97.4835 16.4256 97.7868 16.493 98.1238 16.6054L97.9553 20.4474C97.6183 20.3126 97.2701 20.2227 96.9106 20.1778C96.5511 20.1104 96.2253 20.0767 95.9332 20.0767C95.0345 20.0767 94.2706 20.335 93.6415 20.8518C93.0124 21.3461 92.4844 22.0426 92.0575 22.9413C91.6531 23.8176 91.3385 24.8399 91.1139 26.0082V34.2988H87.4404ZM108.784 34.737C107.391 34.737 106.155 34.5347 105.076 34.1303C103.998 33.7034 103.088 33.108 102.347 32.3441C101.605 31.5577 101.043 30.6253 100.661 29.5469C100.28 28.4459 100.089 27.2102 100.089 25.8397C100.089 24.4691 100.28 23.2109 100.661 22.0651C101.043 20.8967 101.583 19.8857 102.279 19.0319C102.998 18.1781 103.874 17.5153 104.908 17.0435C105.964 16.5717 107.155 16.3358 108.48 16.3358C109.716 16.3358 110.817 16.538 111.783 16.9424C112.772 17.3468 113.603 17.9647 114.277 18.796C114.951 19.6048 115.457 20.6271 115.794 21.8629C116.131 23.0761 116.254 24.5028 116.164 26.143L102.448 26.2441V23.9524L114.007 23.8513L112.727 25.2667C112.862 23.9187 112.749 22.8065 112.39 21.9303C112.03 21.054 111.513 20.4025 110.839 19.9756C110.165 19.5487 109.39 19.3352 108.514 19.3352C107.525 19.3352 106.66 19.5936 105.919 20.1104C105.2 20.6047 104.638 21.3349 104.234 22.301C103.829 23.2671 103.627 24.4242 103.627 25.7723C103.627 27.7944 104.077 29.3222 104.975 30.3557C105.874 31.3668 107.155 31.8723 108.817 31.8723C109.514 31.8723 110.109 31.7937 110.604 31.6364C111.098 31.4566 111.513 31.232 111.85 30.9623C112.187 30.6703 112.457 30.3332 112.659 29.9513C112.884 29.5469 113.064 29.1312 113.199 28.7043L116.4 29.4458C116.198 30.2771 115.883 31.0185 115.457 31.6701C115.052 32.2992 114.535 32.8497 113.906 33.3215C113.277 33.7708 112.536 34.1191 111.682 34.3662C110.851 34.6134 109.885 34.737 108.784 34.737Z" fill="white"/>
<path d="M127.853 5.33805L116.931 5.33806C116.155 5.33806 115.527 5.96676 115.527 6.7423V6.7423C115.527 7.51783 116.155 8.14653 116.931 8.14652L125.045 8.14651L125.045 16.2605C125.045 17.036 125.673 17.6647 126.449 17.6647V17.6647C127.224 17.6647 127.853 17.036 127.853 16.2605L127.853 5.33805ZM123.065 10.085L112.142 10.085C111.367 10.085 110.738 10.7137 110.738 11.4893V11.4893C110.738 12.2648 111.367 12.8935 112.142 12.8935L120.256 12.8935L120.256 21.0074C120.256 21.783 120.885 22.4117 121.66 22.4117V22.4117C122.436 22.4117 123.065 21.783 123.065 21.0074L123.065 10.085Z" fill="#00AE48"/>
</svg>
